<svg id="Layer_1" data-name="Layer 1" xmlns="http://www.w3.org/2000/svg" width="28" height="18" viewBox="0 0 28 18"><defs><style>.cls-1{fill:#999;}</style></defs><title>lupa-cc</title><path class="cls-1" d="M23.78,14.84a.77.77,0,0,1,0,1.07l-.87.87a.77.77,0,0,1-1.07,0l-3.12-3.12a.75.75,0,0,1-.22-.53v-.5a6.55,6.55,0,0,1-7.27.5,6.64,6.64,0,0,1-2.35-2.36A6.27,6.27,0,0,1,8,7.5a6.27,6.27,0,0,1,.88-3.27,6.46,6.46,0,0,1,2.35-2.35,6.52,6.52,0,0,1,6.54,0,6.56,6.56,0,0,1,2.36,2.35A6.36,6.36,0,0,1,21,7.5a6.38,6.38,0,0,1-1.37,4h.5a.75.75,0,0,1,.53.22ZM14.5,11.5a4,4,0,0,0,2-.53A3.94,3.94,0,0,0,18,9.52a4,4,0,1,0-7-4h0a4.12,4.12,0,0,0,0,4A4,4,0,0,0,12.48,11,4.06,4.06,0,0,0,14.5,11.5Z"/></svg>