<svg id="Layer_1" data-name="Layer 1" xmlns="http://www.w3.org/2000/svg" width="26" height="18" viewBox="0 0 26 18"><defs><style>.cls-1{fill:#fff;}</style></defs><title></title><path class="cls-1" d="M15.78,14.84a.76.76,0,0,1,0,1.07l-.87.87a.76.76,0,0,1-1.07,0l-3.12-3.12a.73.73,0,0,1-.22-.53v-.5A6.34,6.34,0,0,1,6.5,14a6.35,6.35,0,0,1-3.27-.87A6.64,6.64,0,0,1,.88,10.77,6.26,6.26,0,0,1,0,7.5,6.26,6.26,0,0,1,.88,4.23,6.46,6.46,0,0,1,3.23,1.88,6.26,6.26,0,0,1,6.5,1a6.26,6.26,0,0,1,3.27.88,6.56,6.56,0,0,1,2.36,2.35A6.35,6.35,0,0,1,13,7.5a6.34,6.34,0,0,1-1.37,4h.5a.73.73,0,0,1,.53.22ZM6.5,11.5a4,4,0,0,0,2-.53A4,4,0,0,0,10,9.52,4,4,0,0,0,3,5.48a4.11,4.11,0,0,0,0,4A4,4,0,0,0,4.48,11,4,4,0,0,0,6.5,11.5Z"/></svg>