<svg id="Capa_1" data-name="Capa 1" xmlns="http://www.w3.org/2000/svg" viewBox="0 0 60 60"><defs><style>.cls-1{fill:#fff;}</style></defs><title>sb-cert</title><path class="cls-1" d="M45,32.82l-2.82-.41-1.26-2.55a1,1,0,0,0-1.88,0L37.8,32.41,35,32.82a1.05,1.05,0,0,0-.58,1.79l2,2L36,39.41a1,1,0,0,0,1.52,1.1L40,39.18l2.52,1.33A1,1,0,0,0,44,39.41l-.48-2.81,2-2A1.05,1.05,0,0,0,45,32.82Z"/><path class="cls-1" d="M59,0H1A1,1,0,0,0,0,1V59a1,1,0,0,0,1,1H59a1,1,0,0,0,1-1V1A1,1,0,0,0,59,0ZM7,12H53V16H7ZM25,37H7V33H25Zm0-10H7V23H25Zm9.58,28.45a1,1,0,0,1-1.93-.08L31.07,51l-.32-.15-4.34,1.58A1.05,1.05,0,0,1,25.1,51l3.68-7.9a13.64,13.64,0,0,0,8.89,5.71Zm-6.09-20A11.51,11.51,0,1,1,40,47,11.53,11.53,0,0,1,28.49,35.45Zm25.1,17-4.34-1.58-.32.15-1.58,4.34a1,1,0,0,1-1.93.08l-3.09-6.61a13.64,13.64,0,0,0,8.89-5.71L54.9,51A1.05,1.05,0,0,1,53.59,52.46Z"/></svg>