<svg id="Layer_1" data-name="Layer 1" xmlns="http://www.w3.org/2000/svg" viewBox="0 0 511 510.5"><defs><style>.cls-1{fill:#fff;}</style></defs><title>sb-guarantee</title><g id="surface1"><path class="cls-1" d="M510.84,226.84h0a29.34,29.34,0,0,0-11.31-20.16L470.44,184,481.38,148A29.22,29.22,0,0,0,460.07,111l-36.59-8.54-4.67-37.28a29.21,29.21,0,0,0-34.49-25l-36.9,7.08L328,15.09A29.52,29.52,0,0,0,290.22,3.83a17.87,17.87,0,0,0-2.72,1.56l-32,22.31L224.64,6.23A29.21,29.21,0,0,0,183,15.09L163.52,47.25l-36.9-7.08a29.21,29.21,0,0,0-34.48,25l-4.67,37.29-38.7,9-1.81.59-.68.29c-14.05,6.15-21.09,21.1-16.71,35.54L40.5,184,10.16,207.62l-1.75,1.53-.5.54a29.57,29.57,0,0,0-1,39.19l23.75,28.39L11.46,312.2,10.69,314l-.22.65a29.56,29.56,0,0,0,15.21,36.25l34,16L56.5,404.24A29.22,29.22,0,0,0,85,435.92l37.56.75,12.32,35.49a29.2,29.2,0,0,0,38.94,17.34l34.62-14.59,27.18,29,1.42,1.27.55.41a30,30,0,0,0,17.86,5.91,29.12,29.12,0,0,0,21.31-9.18l25.69-27.41,34.63,14.6A29.21,29.21,0,0,0,376,472.17l12.33-35.5,39.73-.79,1.89-.2.68-.14a29.57,29.57,0,0,0,23.78-31.29l-3.18-37.44,34-16a29.21,29.21,0,0,0,13.17-40.54l-18.2-33L504,248.88A29.3,29.3,0,0,0,510.84,226.84ZM257.06,383.52c-70.16,0-127.25-57.08-127.25-127.24a127.25,127.25,0,0,1,254.5,0C384.31,326.44,327.22,383.52,257.06,383.52Z" transform="translate(0 -1)"/><path class="cls-1" d="M257.06,159a97.29,97.29,0,1,0,97.29,97.29A97.4,97.4,0,0,0,257.06,159Zm57.76,79-69.7,69.7a15,15,0,0,1-21.18,0L197.31,281a15,15,0,1,1,21.18-21.19l16,16,59.11-59.1A15,15,0,1,1,314.82,238Z" transform="translate(0 -1)"/></g></svg>