<svg id="Layer_1" data-name="Layer 1" xmlns="http://www.w3.org/2000/svg" viewBox="0 0 512 512"><defs><style>.cls-1{fill:#fff;}</style></defs><title>sb-parts</title><path class="cls-1" d="M446.77,136.92l19-31.74-59-59-31.74,19A222.65,222.65,0,0,0,306.7,36.92L297.72,0H214.28l-9,36.92a222.65,222.65,0,0,0-68.38,28.31l-31.74-19-59,59,19,31.74A222.65,222.65,0,0,0,36.92,205.3L0,214.28v83.44l36.92,9a222.65,222.65,0,0,0,28.31,68.38l-19,31.74,59,59,31.74-19a222.65,222.65,0,0,0,68.38,28.31l9,36.92h83.44l9-36.92a222.65,222.65,0,0,0,68.38-28.31l31.74,19,59-59-19-31.74a222.65,222.65,0,0,0,28.31-68.38l36.92-9V214.28l-36.92-9A222.65,222.65,0,0,0,446.77,136.92ZM256,421c-91,0-165-74-165-165S165,91,256,91s165,74,165,165S347,421,256,421Z"/><path class="cls-1" d="M256,148c-37.47,25.48-75,63.53-75,108,0,46.8,42.9,84.3,60,97.8V226h30V353.8c17.1-13.5,60-51,60-97.8C331,211.44,293.53,173.52,256,148Z"/><path class="cls-1" d="M256,364c-4.59-3-7.4-4.5-15-10.2v35.68c5,.57,9.86,1.52,15,1.52s10-.95,15-1.52V353.8C263.29,359.58,260.57,361,256,364Z"/></svg>