<?xml version="1.0" encoding="utf-8"?>
<!-- Generator: Adobe Illustrator 23.0.0, SVG Export Plug-In . SVG Version: 6.00 Build 0)  -->
<svg version="1.1" id="Capa_1" xmlns="http://www.w3.org/2000/svg" xmlns:xlink="http://www.w3.org/1999/xlink" x="0px" y="0px"
	 viewBox="0 0 485.2 485.2" style="enable-background:new 0 0 485.2 485.2;" xml:space="preserve">
<style type="text/css">
	.st0{fill:#FFFFFF;}
</style>
<g>
	<g>
		<rect x="151" y="364.2" class="st0" width="152" height="30"/>
		<path class="st0" d="M121,30.2h243v61h30V30.5c0-16.7-13.6-30.3-30.3-30.3H121.3C104.6,0.2,91,13.8,91,30.5v60.7h30V30.2z"/>
		<rect x="152" y="303.2" class="st0" width="182" height="30"/>
		<path class="st0" d="M454.7,121.2H30.3C13.6,121.2,0,134.8,0,151.6v182.3c0,16.8,13.6,30.4,30.3,30.4H91V455
			c0,16.7,13.6,30.2,30.3,30.2h242.4c16.7,0,30.3-13.6,30.3-30.3v-90.7h60.7c16.7,0,30.3-13.6,30.3-30.3V151.6
			C485,134.8,471.4,121.2,454.7,121.2z M364,455.2H121v-182h243L364,455.2L364,455.2z M424.6,212.3c-16.8,0-30.3-13.6-30.3-30.3
			c0-16.7,13.6-30.3,30.3-30.3c16.8,0,30.3,13.6,30.3,30.3C454.9,198.7,441.3,212.3,424.6,212.3z"/>
	</g>
</g>
</svg>
