<svg xmlns="http://www.w3.org/2000/svg" width="248.125" height="23.125" viewBox="0 0 248.125 23.125">
  <defs>
    <style>
      .cls-1 {
        fill-rule: evenodd;
      }
    </style>
  </defs>
  <path id="Sense_the_Sun_and_Water." data-name="Sense the Sun and Water." class="cls-1" d="M397,52.7a7.868,7.868,0,0,0,3.412-2.275,4.892,4.892,0,0,0,1.278-3.22,3.152,3.152,0,0,0-.753-2.065A5.419,5.419,0,0,0,399.1,43.7a35.3,35.3,0,0,1-4.445-2.485,4.3,4.3,0,0,1-1.435-1.593,4.207,4.207,0,0,1-.35-1.733,3.878,3.878,0,0,1,.98-2.538,7.427,7.427,0,0,1,2.66-1.942,7.866,7.866,0,0,1,3.29-.77l1.5,0.14a1.317,1.317,0,0,0,.962-0.332A1.014,1.014,0,0,0,402.7,31.7a1.049,1.049,0,0,0-.735-0.963,3.952,3.952,0,0,0-1.645-.332,6.211,6.211,0,0,0-1.435.157,16.138,16.138,0,0,0-1.645.508,9.114,9.114,0,0,0-4.025,3.063,9.143,9.143,0,0,0-1.225,2.152,2.035,2.035,0,0,1-.49.578,1.318,1.318,0,0,0-.455.962,5.961,5.961,0,0,0,.35,2.223,5.3,5.3,0,0,0,.98,1.557,8.248,8.248,0,0,0,1.785,1.418q1.155,0.718,3.92,2.152a3.408,3.408,0,0,1,1.33,1.015,2.041,2.041,0,0,1,.35,1.155,3.5,3.5,0,0,1-.858,2.292,6.519,6.519,0,0,1-2.467,1.733,9.332,9.332,0,0,1-3.745.7,4.092,4.092,0,0,1-1.645-.35,4.073,4.073,0,0,0-.98-0.35,0.568,0.568,0,0,0-.315.123,0.355,0.355,0,0,0-.175.3,0.689,0.689,0,0,0,.472.49,2.962,2.962,0,0,1,.578.35,2.44,2.44,0,0,0,1.155.718,5.4,5.4,0,0,0,1.155.123A11.983,11.983,0,0,0,397,52.7ZM405.94,50.7a4.691,4.691,0,0,0,1.488-.84,1.614,1.614,0,0,0,.735-1.19,0.405,0.405,0,0,0-.123-0.3,0.369,0.369,0,0,0-.262-0.123,0.333,0.333,0,0,0-.28.14,2.431,2.431,0,0,1-2.135,1.155,0.846,0.846,0,0,1-.753-0.4,1.658,1.658,0,0,1-.262-0.928,8.77,8.77,0,0,1,.21-1.663,17.2,17.2,0,0,1,.42-1.7,2.633,2.633,0,0,1,.84-1.225q0.909-.63,3.167-2.17a10.925,10.925,0,0,0,2.678-2.222,2.612,2.612,0,0,0,.42-1.383,1.421,1.421,0,0,0-.438-0.962,1.267,1.267,0,0,0-.927-0.473,4.516,4.516,0,0,0-2.573,1.085,12.441,12.441,0,0,0-2.467,2.415,15.1,15.1,0,0,0-1.5,2.31,1.315,1.315,0,0,1-.525.63q-0.176.1-.6,0.333a1.089,1.089,0,0,0-.508.438,1.274,1.274,0,0,0-.087.49,1.062,1.062,0,0,0,.14.42,0.536,0.536,0,0,0,.28.315c0.163,0.047.239,0.117,0.227,0.21a0.7,0.7,0,0,1-.052.21,13.415,13.415,0,0,0-.42,3.08,3.139,3.139,0,0,0,.245,1.172,2.308,2.308,0,0,0,.787,1.015,1.839,1.839,0,0,0,1.1.4A4.106,4.106,0,0,0,405.94,50.7Zm0.858-9.625a0.461,0.461,0,0,1,.175-0.49,8.329,8.329,0,0,1,1.645-1.715,2.362,2.362,0,0,1,1.19-.56,0.316,0.316,0,0,1,.245.123,0.4,0.4,0,0,1,.105.262,2.451,2.451,0,0,1-.963,1.19,7.692,7.692,0,0,1-1.907,1.26,0.388,0.388,0,0,1-.49-0.07h0ZM420.57,51.4a3.694,3.694,0,0,0,1.1-.893,6.458,6.458,0,0,1,1.26-1.067,1.315,1.315,0,0,0,.7-0.7l-0.07-.665-0.21-.07-0.525.525a2.471,2.471,0,0,0-.385.193,3.744,3.744,0,0,1-.612.28,1.393,1.393,0,0,1-.4.087,0.434,0.434,0,0,1-.367-0.455,8.894,8.894,0,0,1-.088-1.505q0-5.389-.1-6.09a2.406,2.406,0,0,0-.3-0.735,0.631,0.631,0,0,0-.508-0.385,2.216,2.216,0,0,0-1.1.333,4.4,4.4,0,0,0-1.033.822,4.764,4.764,0,0,0-.42.63,5.1,5.1,0,0,1-.28.455q-0.244.245-.84,0.91a12.905,12.905,0,0,0-1.12,1.453q-0.525.787-2,3.133-0.21.35-.35,0.263a0.45,0.45,0,0,1-.14-0.4,11.986,11.986,0,0,1,.543-2.887q0.541-1.943.56-1.977a0.253,0.253,0,0,0,.017-0.105,3.528,3.528,0,0,1,.333-0.7,1.621,1.621,0,0,0,.262-0.63l-0.105-.455q0-1.225-.77-1.225a2.414,2.414,0,0,0-.525.087,0.947,0.947,0,0,0-.577.455,4.156,4.156,0,0,0-.4,1.313q-0.49,2.486-.805,5.005a33.667,33.667,0,0,0-.315,3.43,0.86,0.86,0,0,0,.193.578,0.564,0.564,0,0,0,.437.227,1.326,1.326,0,0,0,.84-0.4,13.205,13.205,0,0,0,1.05-1.067q0.525-.63,1.575-2.2l1.4-2.1a3.162,3.162,0,0,1,.35-0.367q0.245-.227.315-0.3a8.422,8.422,0,0,1,.718-0.7q0.472-.42.577-0.525a0.476,0.476,0,0,1,.35-0.14,0.406,0.406,0,0,1,.14.315q0.07,0.281.175,2.818t0.123,2.765c0.011,0.152.017,0.251,0.017,0.3a6.075,6.075,0,0,0,.368,2.222,0.636,0.636,0,0,0,.472.263A1.854,1.854,0,0,0,420.57,51.4Zm7.034,0.385a13.788,13.788,0,0,0,1.558-1.085,3.47,3.47,0,0,1,.735-0.385,3.47,3.47,0,0,0,.735-0.385,2.532,2.532,0,0,0,.945-1.855,2.36,2.36,0,0,0-.158-0.788,2.254,2.254,0,0,0-.542-0.822,3.368,3.368,0,0,0-.875-0.63q-2.171-1.05-3.063-1.557a5.073,5.073,0,0,1-1.382-1.085,1.807,1.807,0,0,1-.49-1.172,1.6,1.6,0,0,1,.507-1.12,3.687,3.687,0,0,1,1.54-.858,6.088,6.088,0,0,1,1.838-.333h1.435q0.63,0,.63-0.385a0.934,0.934,0,0,0-.63-0.56,3.6,3.6,0,0,1-.28-0.367,0.737,0.737,0,0,0-.385-0.332l-0.84-.14a5.735,5.735,0,0,0-2.363.682,8.848,8.848,0,0,0-2.31,1.54,2.475,2.475,0,0,0-.892,1.767,5.259,5.259,0,0,0,.07.648,2.726,2.726,0,0,0,.507,1.1,5.713,5.713,0,0,0,1.4,1.313,21.739,21.739,0,0,0,3.588,1.8,1.681,1.681,0,0,1,.647.49,1.031,1.031,0,0,1,.3.63,2.023,2.023,0,0,1-.49,1.277,3.437,3.437,0,0,1-1.5,1,5.44,5.44,0,0,1-1.925.385,3.248,3.248,0,0,1-1.033-.157,2.647,2.647,0,0,0-.612-0.157,0.423,0.423,0,0,0-.42.122,0.719,0.719,0,0,0-.035.193,0.28,0.28,0,0,0,.157.21,0.287,0.287,0,0,1,.158.175,0.483,0.483,0,0,0,.1.35,2.191,2.191,0,0,0,.927.788,2.505,2.505,0,0,0,.718.123A3.372,3.372,0,0,0,427.6,51.789Zm8.225-1.085a4.691,4.691,0,0,0,1.488-.84,1.614,1.614,0,0,0,.735-1.19,0.405,0.405,0,0,0-.123-0.3,0.369,0.369,0,0,0-.262-0.123,0.333,0.333,0,0,0-.28.14,2.431,2.431,0,0,1-2.135,1.155,0.846,0.846,0,0,1-.753-0.4,1.658,1.658,0,0,1-.262-0.928,8.77,8.77,0,0,1,.21-1.663,17.2,17.2,0,0,1,.42-1.7,2.633,2.633,0,0,1,.84-1.225q0.909-.63,3.167-2.17a10.925,10.925,0,0,0,2.678-2.222,2.612,2.612,0,0,0,.42-1.383,1.421,1.421,0,0,0-.438-0.962,1.267,1.267,0,0,0-.927-0.473,4.516,4.516,0,0,0-2.573,1.085,12.441,12.441,0,0,0-2.467,2.415,15.1,15.1,0,0,0-1.5,2.31,1.315,1.315,0,0,1-.525.63q-0.175.1-.595,0.333a1.089,1.089,0,0,0-.508.438,1.274,1.274,0,0,0-.087.49,1.062,1.062,0,0,0,.14.42,0.536,0.536,0,0,0,.28.315c0.163,0.047.239,0.117,0.227,0.21a0.7,0.7,0,0,1-.052.21,13.415,13.415,0,0,0-.42,3.08,3.139,3.139,0,0,0,.245,1.172,2.308,2.308,0,0,0,.787,1.015,1.839,1.839,0,0,0,1.1.4A4.106,4.106,0,0,0,435.829,50.7Zm0.858-9.625a0.461,0.461,0,0,1,.175-0.49,8.329,8.329,0,0,1,1.645-1.715,2.362,2.362,0,0,1,1.19-.56,0.316,0.316,0,0,1,.245.123,0.4,0.4,0,0,1,.105.262,2.451,2.451,0,0,1-.963,1.19,7.692,7.692,0,0,1-1.907,1.26,0.388,0.388,0,0,1-.49-0.07h0Zm16.466,11.182a1.55,1.55,0,0,0,.193-0.788l-0.105-.7a9.041,9.041,0,0,0-.14-1.138A5.682,5.682,0,0,1,453,48.359a6.719,6.719,0,0,1,.122-0.945,6.724,6.724,0,0,0,.123-1.085,17.082,17.082,0,0,1,.245-2.572q0.245-1.557.56-2.783a0.688,0.688,0,0,1,.262-0.4,5,5,0,0,1,.438-0.333l0.35-.385,0.805-.28,0.7-.385,1.085-.385a0.548,0.548,0,0,1,.472.07,0.631,0.631,0,0,1,.053.28,1.16,1.16,0,0,1-.105.455,1.06,1.06,0,0,0-.105.35,0.578,0.578,0,0,0,.035.262,0.408,0.408,0,0,0,.28.053,1.31,1.31,0,0,0,.525-0.123,0.584,0.584,0,0,0,.35-0.332,3.366,3.366,0,0,1,.4-0.91,1.737,1.737,0,0,0,.3-0.665,0.822,0.822,0,0,0-.3-0.8,1.973,1.973,0,0,0-.822-0.14,7.072,7.072,0,0,0-1.558.35q-1.173.35-1.942,0.63-0.561.21-.42-0.42,0.105-.454.542-1.8a7.394,7.394,0,0,0,.438-1.837,1.647,1.647,0,0,1,.1-0.543,0.853,0.853,0,0,1,.612-0.455,0.565,0.565,0,0,0,.508-0.472,1.52,1.52,0,0,0-.7-1.12,2.078,2.078,0,0,0-1.19-.56,1.029,1.029,0,0,0-.858.332,1.234,1.234,0,0,0-.262.788l-0.035,1.33q0,0.35-.263,2.013t-0.542,3.027a0.909,0.909,0,0,1-.385.56,12.988,12.988,0,0,1-1.61.84,10.27,10.27,0,0,0-1.26.63,4.868,4.868,0,0,0-1,.858,1.2,1.2,0,0,0-.332.578,0.8,0.8,0,0,0,.98.8,2.23,2.23,0,0,0,.735-0.455q0.594-.454.665-0.49l1.33-.77a0.284,0.284,0,0,1,.315-0.017,0.353,0.353,0,0,1,.07.333,61.01,61.01,0,0,0-1.015,7.56,7.1,7.1,0,0,1-.123.963c-0.082.478-.122,0.752-0.122,0.822a2.55,2.55,0,0,0,.28,1.54,0.992,0.992,0,0,0,.735.28A0.721,0.721,0,0,0,453.153,52.262Zm6.755-1.12a0.5,0.5,0,0,0,.367-0.4l0.385-2.345,1.085-2.45q0.281-.8.578-1.523A12.3,12.3,0,0,1,462.9,43.2a6.329,6.329,0,0,1,.455-0.735q0.175-.227.315-0.4c0.093-.116.152-0.186,0.175-0.21a0.744,0.744,0,0,1,.525-0.385,0.337,0.337,0,0,1,.263.193,1.018,1.018,0,0,1,.122.542,24.377,24.377,0,0,0,.245,3.29,20.619,20.619,0,0,0,.455,2.52,3.129,3.129,0,0,0,.525,1.085,0.837,0.837,0,0,0,.525.385,1.27,1.27,0,0,0,1.365-1.26l0.385-.735a1.411,1.411,0,0,0,.14-0.56,0.4,0.4,0,0,0-.07-0.315,0.738,0.738,0,0,0-.28-0.035,1.169,1.169,0,0,0-.63.49,0.7,0.7,0,0,1-.367.21,0.217,0.217,0,0,1-.263-0.175,23.992,23.992,0,0,1-.805-6.23,2.135,2.135,0,0,0-.262-1.085,0.741,0.741,0,0,0-.613-0.455q-1.226,0-2.205,1.925l-1.715,3.4a0.659,0.659,0,0,1-.227.245c-0.059.023-.094,0-0.105-0.07a0.606,0.606,0,0,1,.017-0.245q1.016-5.88,1.225-7.84l0.14-.945,0.385-.7a0.352,0.352,0,0,1,.105-0.193,0.44,0.44,0,0,0,.1-0.3,0.3,0.3,0,0,0-.14-0.245,0.5,0.5,0,0,1-.14-0.42,1.419,1.419,0,0,0-.3-0.752,0.837,0.837,0,0,0-.683-0.437,0.859,0.859,0,0,0-.77.367,1.181,1.181,0,0,0-.245.578q0,1.47-.245,5.53l0.105,0.98q-0.14,2.345-.455,4.462a27.221,27.221,0,0,1-.752,3.605q-0.438,1.488-.49,1.75a2.231,2.231,0,0,0-.053.4,1.024,1.024,0,0,0,.175.578,0.482,0.482,0,0,0,.385.263A1.969,1.969,0,0,0,459.908,51.142Zm11.48-.437a4.7,4.7,0,0,0,1.487-.84,1.614,1.614,0,0,0,.735-1.19,0.408,0.408,0,0,0-.122-0.3,0.371,0.371,0,0,0-.263-0.123,0.333,0.333,0,0,0-.28.14,2.43,2.43,0,0,1-2.135,1.155,0.844,0.844,0,0,1-.752-0.4,1.659,1.659,0,0,1-.263-0.928,8.77,8.77,0,0,1,.21-1.663,17.2,17.2,0,0,1,.42-1.7,2.633,2.633,0,0,1,.84-1.225q0.911-.63,3.168-2.17a10.912,10.912,0,0,0,2.677-2.222,2.612,2.612,0,0,0,.42-1.383,1.424,1.424,0,0,0-.437-0.962,1.267,1.267,0,0,0-.928-0.473,4.514,4.514,0,0,0-2.572,1.085,12.447,12.447,0,0,0-2.468,2.415,15.18,15.18,0,0,0-1.5,2.31,1.315,1.315,0,0,1-.525.63q-0.176.1-.6,0.333a1.085,1.085,0,0,0-.507.438,1.255,1.255,0,0,0-.088.49,1.079,1.079,0,0,0,.14.42,0.539,0.539,0,0,0,.28.315q0.245,0.071.228,0.21a0.694,0.694,0,0,1-.053.21,13.415,13.415,0,0,0-.42,3.08,3.159,3.159,0,0,0,.245,1.172,2.31,2.31,0,0,0,.788,1.015,1.837,1.837,0,0,0,1.1.4A4.112,4.112,0,0,0,471.388,50.7Zm0.857-9.625a0.461,0.461,0,0,1,.175-0.49,8.355,8.355,0,0,1,1.645-1.715,2.362,2.362,0,0,1,1.19-.56,0.316,0.316,0,0,1,.245.123,0.4,0.4,0,0,1,.105.262,2.453,2.453,0,0,1-.962,1.19,7.7,7.7,0,0,1-1.908,1.26,0.388,0.388,0,0,1-.49-0.07h0ZM489.6,52.7a7.871,7.871,0,0,0,3.413-2.275,4.9,4.9,0,0,0,1.277-3.22,3.156,3.156,0,0,0-.752-2.065A5.423,5.423,0,0,0,491.7,43.7a35.3,35.3,0,0,1-4.445-2.485,4.308,4.308,0,0,1-1.435-1.593,4.223,4.223,0,0,1-.35-1.733,3.883,3.883,0,0,1,.98-2.538,7.427,7.427,0,0,1,2.66-1.942,7.869,7.869,0,0,1,3.29-.77l1.5,0.14a1.319,1.319,0,0,0,.963-0.332,1.016,1.016,0,0,0,.437-0.753,1.049,1.049,0,0,0-.735-0.963,3.948,3.948,0,0,0-1.645-.332,6.217,6.217,0,0,0-1.435.157,16.215,16.215,0,0,0-1.645.508,9.128,9.128,0,0,0-4.025,3.063,9.179,9.179,0,0,0-1.225,2.152,2.017,2.017,0,0,1-.49.578,1.318,1.318,0,0,0-.455.962,5.961,5.961,0,0,0,.35,2.223,5.3,5.3,0,0,0,.98,1.557,8.248,8.248,0,0,0,1.785,1.418q1.155,0.718,3.92,2.152a3.4,3.4,0,0,1,1.33,1.015,2.041,2.041,0,0,1,.35,1.155,3.5,3.5,0,0,1-.857,2.292,6.523,6.523,0,0,1-2.468,1.733,9.328,9.328,0,0,1-3.745.7,4.1,4.1,0,0,1-1.645-.35,4.058,4.058,0,0,0-.98-0.35,0.568,0.568,0,0,0-.315.123,0.358,0.358,0,0,0-.175.3,0.691,0.691,0,0,0,.473.49,2.941,2.941,0,0,1,.577.35,2.445,2.445,0,0,0,1.155.718,5.4,5.4,0,0,0,1.155.123A11.979,11.979,0,0,0,489.6,52.7Zm8.365-3.045a1.885,1.885,0,0,0,.315-0.543,2.59,2.59,0,0,1,.35-0.612q2.029-2.52,2.24-2.835a3.493,3.493,0,0,1,.613-0.525,2.717,2.717,0,0,0,.612-0.56l0.98-1.19q0.21-.349.315-0.28a0.443,0.443,0,0,1,.14.315q0.035,0.386.018,2.188t-0.018,2.608a2.237,2.237,0,0,0,.245,1.1,0.675,0.675,0,0,0,.525.438,3.673,3.673,0,0,0,2.59-1.61q1.365-1.609,1.68-1.89a4.521,4.521,0,0,0,.718-0.945,2.732,2.732,0,0,0,.437-0.875,0.208,0.208,0,0,0-.21-0.21,0.976,0.976,0,0,0-.472.4,4.394,4.394,0,0,1-.753.717l-0.28.21a12.5,12.5,0,0,1-1.575,1.505,1.5,1.5,0,0,1-.84.28,0.4,0.4,0,0,1-.367-0.4,7.1,7.1,0,0,1-.088-1.347q0-3.885-.105-4.8a1.533,1.533,0,0,0-.245-0.788,0.6,0.6,0,0,0-.49-0.3q-0.525,0-1.54,1.505a37.805,37.805,0,0,1-3.85,5.18l-1.4,1.365a1.64,1.64,0,0,1-.63.455q-0.176,0-.175-0.56a12.3,12.3,0,0,1,.473-2.362q0.472-1.8,1.1-3.587a4.112,4.112,0,0,1,1.015-1.54,1.083,1.083,0,0,0,.385-0.735,2.265,2.265,0,0,0-.14-0.665c-0.093-.28-0.152-0.466-0.175-0.56a0.54,0.54,0,0,0-.6-0.525,1.347,1.347,0,0,0-.962.683,4.26,4.26,0,0,0-.718,1.732q-0.034.245-1.12,4.445a31.042,31.042,0,0,0-1.085,5.215,1.976,1.976,0,0,0,.193.788,0.587,0.587,0,0,0,.507.438,4,4,0,0,0,2.38-1.33h0Zm19.9,1.75a3.693,3.693,0,0,0,1.1-.893,6.458,6.458,0,0,1,1.26-1.067,1.319,1.319,0,0,0,.7-0.7l-0.07-.665-0.21-.07-0.525.525a2.423,2.423,0,0,0-.385.193,3.788,3.788,0,0,1-.613.28,1.388,1.388,0,0,1-.4.087,0.435,0.435,0,0,1-.368-0.455,9.031,9.031,0,0,1-.087-1.505q0-5.389-.105-6.09a2.385,2.385,0,0,0-.3-0.735,0.631,0.631,0,0,0-.507-0.385,2.22,2.22,0,0,0-1.1.333,4.4,4.4,0,0,0-1.032.822,4.764,4.764,0,0,0-.42.63c-0.164.28-.257,0.432-0.28,0.455q-0.246.245-.84,0.91a12.905,12.905,0,0,0-1.12,1.453q-0.525.787-1.995,3.133-0.21.35-.35,0.263a0.447,0.447,0,0,1-.14-0.4,11.972,11.972,0,0,1,.542-2.887q0.543-1.943.56-1.977a0.235,0.235,0,0,0,.018-0.105,3.454,3.454,0,0,1,.332-0.7,1.628,1.628,0,0,0,.263-0.63l-0.1-.455q0-1.225-.77-1.225a2.414,2.414,0,0,0-.525.087,0.949,0.949,0,0,0-.578.455,4.135,4.135,0,0,0-.4,1.313q-0.49,2.486-.805,5.005a33.667,33.667,0,0,0-.315,3.43,0.865,0.865,0,0,0,.192.578,0.564,0.564,0,0,0,.438.227,1.33,1.33,0,0,0,.84-0.4,13.205,13.205,0,0,0,1.05-1.067q0.525-.63,1.575-2.2t1.4-2.1a3.077,3.077,0,0,1,.35-0.367q0.245-.227.315-0.3a8.384,8.384,0,0,1,.717-0.7q0.472-.42.578-0.525a0.476,0.476,0,0,1,.35-0.14,0.409,0.409,0,0,1,.14.315q0.069,0.281.175,2.818t0.122,2.765c0.012,0.152.018,0.251,0.018,0.3a6.086,6.086,0,0,0,.367,2.222,0.638,0.638,0,0,0,.473.263A1.849,1.849,0,0,0,517.866,51.4Zm11.567,1.19a5.18,5.18,0,0,0,.928-0.752,14.57,14.57,0,0,0,1-1.12q0.525-.648,1.7-2.1t2.275-2.747q1.1-1.294,2.327-2.66a1.542,1.542,0,0,0,.123-0.157,0.668,0.668,0,0,1,.14-0.157,0.174,0.174,0,0,1,.087-0.035c0.117,0,.175.082,0.175,0.245l-0.035.595q0,0.491-.192,2.117t-0.193,2.222a22.164,22.164,0,0,0,.175,3.255,2.745,2.745,0,0,0,.56,1.47,1.791,1.791,0,0,0,1.295.385,0.988,0.988,0,0,0,.735-0.4,1.29,1.29,0,0,0,.35-0.858,0.668,0.668,0,0,0-.262-0.455,6.509,6.509,0,0,0-.543-0.455q-0.735-.491-0.735-4.235,0-.874.158-2.608t0.262-2.642a1.985,1.985,0,0,1,.333-0.595,1.369,1.369,0,0,0,.3-0.77,0.817,0.817,0,0,0-.332-0.63,2.178,2.178,0,0,0-.613-0.385,0.731,0.731,0,0,1-.42-0.525,1.069,1.069,0,0,0-.385-0.8,1.086,1.086,0,0,0-.665-0.28,4.218,4.218,0,0,0-1.785.49,5.3,5.3,0,0,0-1.715,1.295,51.4,51.4,0,0,0-3.5,4.62,31.828,31.828,0,0,0-2.747,4.672,7.915,7.915,0,0,0-.858,2.887,1.4,1.4,0,0,0,.35,1.1,1.122,1.122,0,0,0,.735.3A1.837,1.837,0,0,0,529.433,52.594Zm0.6-2.975a8.191,8.191,0,0,1,1.05-2.5,35.948,35.948,0,0,1,2.328-3.8,31.44,31.44,0,0,1,2.187-2.835,1.933,1.933,0,0,1,.683-0.49,1.832,1.832,0,0,1,.717-0.175,0.3,0.3,0,0,1,.315.175c0.047,0.117.082,0.2,0.105,0.245a2.067,2.067,0,0,1,.158.228,1.2,1.2,0,0,1,.157.332,1.171,1.171,0,0,1,.035.28,1.016,1.016,0,0,1-.105.56q-3.255,3.465-4.952,5.512T530.8,49.409l-0.35.35a0.529,0.529,0,0,1-.315.14,0.378,0.378,0,0,1-.105-0.28h0ZM551.045,51.4a3.693,3.693,0,0,0,1.1-.893,6.458,6.458,0,0,1,1.26-1.067,1.319,1.319,0,0,0,.7-0.7l-0.07-.665-0.21-.07-0.525.525a2.423,2.423,0,0,0-.385.193,3.788,3.788,0,0,1-.613.28,1.388,1.388,0,0,1-.4.087,0.435,0.435,0,0,1-.368-0.455,9.031,9.031,0,0,1-.087-1.505q0-5.389-.105-6.09a2.385,2.385,0,0,0-.3-0.735,0.631,0.631,0,0,0-.507-0.385,2.22,2.22,0,0,0-1.1.333,4.4,4.4,0,0,0-1.032.822,4.764,4.764,0,0,0-.42.63c-0.164.28-.257,0.432-0.28,0.455q-0.246.245-.84,0.91a12.905,12.905,0,0,0-1.12,1.453q-0.525.787-2,3.133-0.21.35-.35,0.263a0.447,0.447,0,0,1-.14-0.4,11.972,11.972,0,0,1,.542-2.887q0.543-1.943.56-1.977a0.235,0.235,0,0,0,.018-0.105,3.454,3.454,0,0,1,.332-0.7,1.628,1.628,0,0,0,.263-0.63l-0.1-.455q0-1.225-.77-1.225a2.414,2.414,0,0,0-.525.087,0.949,0.949,0,0,0-.578.455,4.135,4.135,0,0,0-.4,1.313q-0.49,2.486-.8,5.005a33.667,33.667,0,0,0-.315,3.43,0.865,0.865,0,0,0,.192.578,0.564,0.564,0,0,0,.438.227,1.33,1.33,0,0,0,.84-0.4,13.205,13.205,0,0,0,1.05-1.067q0.525-.63,1.575-2.2l1.4-2.1a3.077,3.077,0,0,1,.35-0.367q0.245-.227.315-0.3a8.384,8.384,0,0,1,.717-0.7q0.472-.42.578-0.525a0.476,0.476,0,0,1,.35-0.14,0.409,0.409,0,0,1,.14.315q0.069,0.281.175,2.818t0.122,2.765c0.012,0.152.018,0.251,0.018,0.3a6.086,6.086,0,0,0,.367,2.222,0.638,0.638,0,0,0,.473.263A1.849,1.849,0,0,0,551.045,51.4Zm5.075-1.523a10.833,10.833,0,0,0,1.978-2.013,1.712,1.712,0,0,0,.3-0.49,2.442,2.442,0,0,1,.333-0.56q0.42-.525,1.3-1.558a10.34,10.34,0,0,0,1.155-1.557l0.175-.455a5,5,0,0,1,.63-0.718,6.174,6.174,0,0,0,.665-0.752,1.125,1.125,0,0,1,.227-0.28,0.192,0.192,0,0,1,.193-0.07,0.447,0.447,0,0,1-.035.455,2.2,2.2,0,0,0-.14.63q-0.141,1.89-.14,2.87a1.648,1.648,0,0,1-.123.542,1.672,1.672,0,0,0-.122.438q0,2.486,1.12,2.485a1.914,1.914,0,0,0,1.89-1.96,0.271,0.271,0,0,0-.158-0.315,1.278,1.278,0,0,0-.262-0.035l-0.735.14a0.271,0.271,0,0,1-.28-0.175,0.788,0.788,0,0,1-.07-0.245,26.823,26.823,0,0,1,.227-2.87,18.312,18.312,0,0,1,.438-2.625,31.016,31.016,0,0,1,1.225-3.255q0.1-.244.717-1.365a4.344,4.344,0,0,0,.613-1.47,0.964,0.964,0,0,0-.368-0.788,1.121,1.121,0,0,0-.682-0.3,1.1,1.1,0,0,0-.648.245,0.721,0.721,0,0,0-.332.595,2.332,2.332,0,0,1-.263.525,2.635,2.635,0,0,0-.3.63,8.6,8.6,0,0,1-.91,2.625,0.237,0.237,0,0,1-.228.14,0.247,0.247,0,0,1-.227-0.21,1.216,1.216,0,0,0-1.19-.84,4.162,4.162,0,0,0-2.363,1.365,26.069,26.069,0,0,0-3.027,3.377A27.458,27.458,0,0,0,554.143,46a7.227,7.227,0,0,0-1.015,2.958,1.28,1.28,0,0,0,.49,1.12,1.227,1.227,0,0,1,.245.227,1.155,1.155,0,0,0,.315.263,0.62,0.62,0,0,0,.28.07A3.024,3.024,0,0,0,556.12,49.882Zm-0.962-1.33a0.2,0.2,0,0,1-.105-0.262,11.092,11.092,0,0,1,1.575-3.553,23.029,23.029,0,0,1,2.975-3.955q1.61-1.7,2.275-1.7a0.662,0.662,0,0,1,.455.28,0.894,0.894,0,0,1,.245.6,1.2,1.2,0,0,1-.28.56q-0.281.386-.385,0.525a27.09,27.09,0,0,1-6.4,7.42A0.4,0.4,0,0,1,555.158,48.552Zm23.256,4.008a9.136,9.136,0,0,0,1.173-2.765q1.119-3.919,2.555-8.575a5.248,5.248,0,0,1,.612-1.383,0.527,0.527,0,0,1,.333-0.193q0.42,0,.6,1.435,0.034,0.315.332,2.538t0.455,3.517q0.157,1.3.228,1.75,0.349,2.625,1.575,2.625a2.6,2.6,0,0,0,1.872-1.172,11.547,11.547,0,0,0,1.75-3.29,27.038,27.038,0,0,0,1.26-4.953,36.16,36.16,0,0,0,.473-5.95,19.032,19.032,0,0,0-.333-4.76,1.088,1.088,0,0,0-.962-0.875,0.393,0.393,0,0,0-.315.262,0.965,0.965,0,0,1-.245.332,1.418,1.418,0,0,0-.42,1.015l-0.14.875a6.124,6.124,0,0,0,.262.98,10.94,10.94,0,0,1,.385,1.68,11.581,11.581,0,0,1,.123,1.68,25.434,25.434,0,0,1-.455,5.232q-0.456,2.118-.49,2.345a2.342,2.342,0,0,1-.07.333l-0.525,1.715a12.821,12.821,0,0,1-1.4,2.555,0.556,0.556,0,0,1-.385.28c-0.14,0-.222-0.128-0.245-0.385q-1.155-6.4-1.54-10.57a7.051,7.051,0,0,0-.508-2.222,1.081,1.081,0,0,0-.892-0.788q-0.91,0-1.435,1.89t-0.6,2.065q-0.666,1.715-1.558,4.62t-0.962,3.15l-0.945,3.36a0.8,0.8,0,0,1-.455.595,0.4,0.4,0,0,1-.14-0.315,45.105,45.105,0,0,1-.333-5.81q-0.123-5-.122-11.55a3.958,3.958,0,0,0-.193-1.61,0.535,0.535,0,0,0-.437-0.315,1.369,1.369,0,0,0-.735.175l-0.07.1-0.14.14-0.105.1a1.5,1.5,0,0,0-.175.84q0,11.025.49,15.645t1.54,4.62A1.815,1.815,0,0,0,578.414,52.559Zm15.278,0.035a5.176,5.176,0,0,0,.927-0.752,14.567,14.567,0,0,0,1-1.12q0.525-.648,1.7-2.1t2.275-2.747q1.1-1.294,2.328-2.66a1.442,1.442,0,0,0,.122-0.157,0.668,0.668,0,0,1,.14-0.157,0.173,0.173,0,0,1,.088-0.035c0.116,0,.175.082,0.175,0.245l-0.035.595q0,0.491-.193,2.117t-0.192,2.222A22.164,22.164,0,0,0,602.2,51.3a2.737,2.737,0,0,0,.56,1.47,1.789,1.789,0,0,0,1.3.385,0.991,0.991,0,0,0,.735-0.4,1.29,1.29,0,0,0,.35-0.858,0.67,0.67,0,0,0-.263-0.455,6.663,6.663,0,0,0-.542-0.455q-0.735-.491-0.735-4.235,0-.874.157-2.608t0.263-2.642a2,2,0,0,1,.332-0.595,1.371,1.371,0,0,0,.3-0.77,0.815,0.815,0,0,0-.333-0.63,2.189,2.189,0,0,0-.612-0.385,0.726,0.726,0,0,1-.42-0.525,1.072,1.072,0,0,0-.385-0.8,1.088,1.088,0,0,0-.665-0.28,4.211,4.211,0,0,0-1.785.49,5.286,5.286,0,0,0-1.715,1.295,51.208,51.208,0,0,0-3.5,4.62,31.938,31.938,0,0,0-2.748,4.672,7.929,7.929,0,0,0-.857,2.887,1.4,1.4,0,0,0,.35,1.1,1.122,1.122,0,0,0,.735.3A1.84,1.84,0,0,0,593.692,52.594Zm0.6-2.975a8.191,8.191,0,0,1,1.05-2.5,35.94,35.94,0,0,1,2.327-3.8,31.606,31.606,0,0,1,2.188-2.835,1.93,1.93,0,0,1,.682-0.49,1.836,1.836,0,0,1,.718-0.175,0.3,0.3,0,0,1,.315.175c0.046,0.117.081,0.2,0.105,0.245a2.125,2.125,0,0,1,.157.228,1.208,1.208,0,0,1,.158.332,1.171,1.171,0,0,1,.035.28,1.016,1.016,0,0,1-.105.56q-3.255,3.465-4.953,5.512t-1.907,2.258l-0.35.35a0.529,0.529,0,0,1-.315.14,0.378,0.378,0,0,1-.105-0.28h0ZM610.3,52.262a1.55,1.55,0,0,0,.192-0.788l-0.105-.7a9.041,9.041,0,0,0-.14-1.138,5.8,5.8,0,0,1-.105-1.277,6.773,6.773,0,0,1,.123-0.945,6.816,6.816,0,0,0,.122-1.085,17.215,17.215,0,0,1,.245-2.572q0.245-1.557.56-2.783a0.69,0.69,0,0,1,.263-0.4,4.848,4.848,0,0,1,.437-0.333l0.35-.385,0.805-.28,0.7-.385,1.085-.385a0.55,0.55,0,0,1,.473.07,0.632,0.632,0,0,1,.052.28,1.16,1.16,0,0,1-.105.455,1.06,1.06,0,0,0-.105.35,0.593,0.593,0,0,0,.035.262,0.41,0.41,0,0,0,.28.053,1.31,1.31,0,0,0,.525-0.123,0.581,0.581,0,0,0,.35-0.332,3.341,3.341,0,0,1,.4-0.91,1.729,1.729,0,0,0,.3-0.665,0.822,0.822,0,0,0-.3-0.8,1.981,1.981,0,0,0-.823-0.14,7.055,7.055,0,0,0-1.557.35q-1.173.35-1.943,0.63-0.56.21-.42-0.42,0.105-.454.543-1.8a7.424,7.424,0,0,0,.437-1.837,1.647,1.647,0,0,1,.105-0.543,0.853,0.853,0,0,1,.613-0.455,0.564,0.564,0,0,0,.507-0.472,1.517,1.517,0,0,0-.7-1.12,2.075,2.075,0,0,0-1.19-.56,1.026,1.026,0,0,0-.857.332,1.235,1.235,0,0,0-.263.788l-0.035,1.33a20.2,20.2,0,0,1-.262,2.013q-0.262,1.663-.543,3.027a0.9,0.9,0,0,1-.385.56,12.988,12.988,0,0,1-1.61.84,10.423,10.423,0,0,0-1.26.63,4.859,4.859,0,0,0-1,.858,1.2,1.2,0,0,0-.333.578,0.8,0.8,0,0,0,.98.8,2.23,2.23,0,0,0,.735-0.455c0.4-.3.618-0.467,0.665-0.49l1.33-.77a0.284,0.284,0,0,1,.315-0.017,0.353,0.353,0,0,1,.07.333,61.01,61.01,0,0,0-1.015,7.56,7.218,7.218,0,0,1-.122.963q-0.123.717-.123,0.822a2.55,2.55,0,0,0,.28,1.54,1,1,0,0,0,.735.28A0.723,0.723,0,0,0,610.3,52.262Zm9.484-1.557a4.691,4.691,0,0,0,1.488-.84,1.614,1.614,0,0,0,.735-1.19,0.405,0.405,0,0,0-.123-0.3,0.369,0.369,0,0,0-.262-0.123,0.333,0.333,0,0,0-.28.14,2.431,2.431,0,0,1-2.135,1.155,0.846,0.846,0,0,1-.753-0.4,1.658,1.658,0,0,1-.262-0.928,8.77,8.77,0,0,1,.21-1.663,17.2,17.2,0,0,1,.42-1.7,2.633,2.633,0,0,1,.84-1.225q0.909-.63,3.167-2.17a10.925,10.925,0,0,0,2.678-2.222,2.612,2.612,0,0,0,.42-1.383,1.421,1.421,0,0,0-.438-0.962,1.267,1.267,0,0,0-.927-0.473,4.516,4.516,0,0,0-2.573,1.085,12.441,12.441,0,0,0-2.467,2.415,15.1,15.1,0,0,0-1.5,2.31,1.315,1.315,0,0,1-.525.63q-0.175.1-.6,0.333a1.089,1.089,0,0,0-.508.438,1.274,1.274,0,0,0-.087.49,1.062,1.062,0,0,0,.14.42,0.536,0.536,0,0,0,.28.315c0.163,0.047.239,0.117,0.227,0.21a0.7,0.7,0,0,1-.052.21,13.415,13.415,0,0,0-.42,3.08,3.139,3.139,0,0,0,.245,1.172,2.308,2.308,0,0,0,.787,1.015,1.839,1.839,0,0,0,1.1.4A4.106,4.106,0,0,0,619.783,50.7Zm0.858-9.625a0.461,0.461,0,0,1,.175-0.49,8.329,8.329,0,0,1,1.645-1.715,2.362,2.362,0,0,1,1.19-.56,0.316,0.316,0,0,1,.245.123A0.4,0.4,0,0,1,624,38.7a2.451,2.451,0,0,1-.963,1.19,7.692,7.692,0,0,1-1.907,1.26,0.388,0.388,0,0,1-.49-0.07h0Zm5.372,8.943a2.675,2.675,0,0,0,.472-0.7q0.315-.578.525-0.892a39.3,39.3,0,0,1,3.693-5.32q1.557-1.785,2.257-1.785a2.035,2.035,0,0,1,.893.508,1.962,1.962,0,0,0,.927.508,0.869,0.869,0,0,0,.613-0.21,0.687,0.687,0,0,0,.227-0.525,3.2,3.2,0,0,0-.542-1.627,1.466,1.466,0,0,0-1.068-.892,2.593,2.593,0,0,0-1.05.3,4.937,4.937,0,0,0-1.05.648,18.016,18.016,0,0,0-2.9,3.1,24.344,24.344,0,0,0-1.855,3.028,0.592,0.592,0,0,1-.245.28q-0.1.035-.105-0.28,0-.1.578-2.713t0.647-2.922a1.96,1.96,0,0,0-.332-1.207,0.946,0.946,0,0,0-.753-0.437,1.192,1.192,0,0,0-.735.14,0.955,0.955,0,0,0-.14.63,0.472,0.472,0,0,1-.227.35,0.475,0.475,0,0,0-.228.28,1.116,1.116,0,0,0,.228.665,0.98,0.98,0,0,1,.227.525q0,0.035-.665,3.64t-0.665,3.815q0,1.226.7,1.225A0.983,0.983,0,0,0,626.013,50.022Zm10.29-.4a0.617,0.617,0,0,0,.4-0.385,0.326,0.326,0,0,1,.088-0.21,0.533,0.533,0,0,1,.157-0.14,0.422,0.422,0,0,0,.175-0.315c0-.093.105-0.14,0.315-0.14a0.252,0.252,0,0,0,.245-0.315,1.431,1.431,0,0,0-.455-0.822,1.484,1.484,0,0,0-1.155-.508,1.431,1.431,0,0,0-1.12.595,1.841,1.841,0,0,0-.49,1.155,1.266,1.266,0,0,0,.35.875,1,1,0,0,0,.735.385A1.727,1.727,0,0,0,636.3,49.619Z" transform="translate(-389.563 -30.406)"/>
</svg>
