<?xml version="1.0" encoding="UTF-8"?>
<svg id="Layer_1" data-name="Layer 1" xmlns="http://www.w3.org/2000/svg" viewBox="0 0 20 22">
  <defs>
    <style>
      .cls-1, .cls-2 {
        fill: #fff;
        stroke-width: 0px;
      }

      .cls-2 {
        fill-rule: evenodd;
      }
    </style>
  </defs>
  <path class="cls-2" d="M6.5,9c1.93,0,3.5-1.57,3.5-3.5s-1.57-3.5-3.5-3.5-3.5,1.57-3.5,3.5,1.57,3.5,3.5,3.5ZM6,3h1v2h2v1h-3v-3Z"/>
  <path class="cls-2" d="M18.78,12s-.02,0-.03,0h-.81c.04.18.06.34.06.5,0,1.41-1.13,2.5-2.5,2.5s-2.5-1.09-2.5-2.5c0-.16,0-.31.03-.5h-6.1c.03.18.06.34.06.5,0,1.41-1.13,2.5-2.5,2.5s-2.5-1.09-2.5-2.5c0-.16,0-.31.03-.5h-.5C.68,12,0,11.38,0,10.57V1.47C0,.66.68,0,1.52,0h9.91c.85,0,1.57.66,1.57,1.47v.53h2.37c.53,0,1.03.22,1.41.59l1.62,2.62c.38.38.59.91.59,1.41,0,.88,0,1.76,0,2.62h0c0,.6,0,1.18,0,1.76h.5c.28,0,.5.22.5.5s-.22.5-.5.5h-.72ZM6,12.49c0,.85-.69,1.5-1.5,1.5s-1.5-.69-1.5-1.5.69-1.5,1.5-1.5,1.5.66,1.5,1.5ZM12,1.47v9.53h-5.54c-.44-.59-1.15-1-1.97-1s-1.53.4-2,1h-.97c-.31,0-.53-.18-.53-.44V1.47c0-.25.22-.47.53-.47h9.92c.31,0,.56.22.56.47ZM13,6.03v-3.03h2.37c.25,0,.51.13.69.31l1.62,2.62s.06.1.06.1h-4.75ZM17,12.49c0,.85-.69,1.5-1.5,1.5s-1.5-.69-1.5-1.5.69-1.5,1.5-1.5,1.5.66,1.5,1.5ZM18,7v4h-.53c-.44-.59-1.15-1-1.97-1s-1.53.4-2,1h-.5v-4h5Z"/>
  <path class="cls-1" d="M7.6,22v-.9l2.11-1.95c.18-.17.33-.33.45-.47.12-.14.22-.27.28-.41.06-.13.1-.28.1-.44,0-.17-.04-.32-.12-.45-.08-.13-.19-.22-.32-.29-.14-.07-.29-.1-.46-.1s-.34.04-.47.11c-.13.07-.24.18-.31.32-.07.14-.11.3-.11.49h-1.19c0-.39.09-.72.26-1.01.18-.29.42-.51.74-.66.32-.16.68-.23,1.09-.23s.79.08,1.11.23c.32.15.56.35.74.62.18.26.26.57.26.91,0,.22-.04.44-.13.66-.09.22-.24.46-.46.73-.22.26-.54.58-.94.95l-.86.85v.04h2.48v1.02h-4.22Z"/>
  <path class="cls-1" d="M3.4,22l2.45-4.86v-.04h-2.86v-1.02h4.15v1.04l-2.45,4.88h-1.29Z"/>
  <path class="cls-1" d="M17,22v-4.44h-1.17v2.13h-.03c-.19.05-.39.07-.59.07-.22,0-.39-.02-.52-.06-.13-.04-.22-.12-.28-.22-.06-.1-.09-.24-.09-.41v-1.51h-1.16v1.51c0,.58.18,1,.55,1.26.37.26.87.39,1.5.39.13,0,.28-.01.43-.03.07-.01.13-.02.2-.03v1.34h1.17Z"/>
</svg>