<?xml version="1.0" encoding="utf-8"?>
<!-- Generator: Adobe Illustrator 23.0.0, SVG Export Plug-In . SVG Version: 6.00 Build 0)  -->
<svg version="1.1" id="Layer_1" xmlns="http://www.w3.org/2000/svg" xmlns:xlink="http://www.w3.org/1999/xlink" x="0px" y="0px"
	 width="260px" height="56px" viewBox="0 0 260 56" style="enable-background:new 0 0 260 56;" xml:space="preserve">
<style type="text/css">
	.st0{fill:#3D3D3F;}
</style>
<g>
	<path class="st0" d="M236.2,48.4c-0.7,0-1.3,0-1.8-0.1c-0.5-0.1-0.9-0.2-1.1-0.5c-0.4-0.3-0.6-0.9-0.6-1.7v-6.3h0V24.1h0V20
		c0-0.3,0-0.7,0.1-1.1c0.1-0.4,0.3-0.7,0.6-1.1c0.3-0.3,0.7-0.5,1.1-0.5c0.4-0.1,0.8-0.1,1.2-0.1h17.4c3.7,0,6.7-3,6.7-6.7h-28.6
		c-0.9,0-1.8,0.1-2.8,0.3c-1,0.2-1.9,0.7-2.6,1.5c-0.5,0.6-0.8,1.2-1.1,2.1c-0.3,0.8-0.4,1.7-0.4,2.6v31.6c0,0.9,0.1,1.8,0.3,2.7
		c0.2,1,0.6,1.8,1.4,2.5c0.7,0.7,1.5,1.1,2.4,1.2c0.8,0.1,1.8,0.2,2.7,0.2h22.3c3.7,0,6.7-3,6.7-6.6v-0.1H236.2L236.2,48.4z"/>
	<path class="st0" d="M239.3,29c-3.7,0-6.7,3-6.7,6.7h19.8c3.7,0,6.7-3,6.7-6.7v0H239.3L239.3,29z"/>
	<path class="st0" d="M67.4,48.8c0.8-0.1,1.6-0.2,2.4-0.4c0.8-0.2,1.6-0.5,2.4-0.9c0.8-0.4,1.4-0.9,2-1.5c0.5-0.6,0.9-1.2,1.2-1.8
		c0.3-0.7,0.5-1.4,0.6-2c0.1-0.7,0.2-1.4,0.3-2c0-0.7,0-1.3,0-1.8V18.9c0-4.6,3.8-8.4,8.4-8.4v28.9c0,1.9-0.2,3.9-0.7,5.8
		c-0.4,2-1.5,3.8-3.2,5.6c-1.1,1.1-2.3,2-3.7,2.7c-1.4,0.6-2.8,1.1-4.2,1.4c-1.4,0.3-2.8,0.5-4.1,0.6c-1.3,0.1-2.5,0.1-3.5,0.1
		c-1,0-2.2,0-3.5-0.1c-1.3-0.1-2.7-0.3-4.1-0.6c-1.4-0.3-2.8-0.8-4.2-1.4c-1.4-0.6-2.6-1.5-3.7-2.7c-1.7-1.7-2.8-3.6-3.2-5.6
		c-0.4-2-0.7-3.9-0.7-5.8V18.9c0-4.6,3.8-8.4,8.4-8.4v27.8c0,1.2,0.1,2.5,0.3,4c0.2,1.4,0.8,2.7,1.9,3.8c0.6,0.6,1.3,1.1,2,1.5
		c0.7,0.4,1.5,0.7,2.3,0.9c0.8,0.2,1.6,0.3,2.4,0.4c0.8,0.1,1.5,0.1,2.1,0.1C66,48.9,66.7,48.9,67.4,48.8L67.4,48.8z"/>
	<path class="st0" d="M189.9,55.1c-0.7,0-1.5-0.1-2.2-0.3c-0.8-0.2-1.4-0.5-1.9-0.9c-0.3-0.3-0.7-0.7-1.1-1.3
		c-0.4-0.6-0.5-1.4-0.5-2.4V17.2c0-3.7,3-6.7,6.7-6.7h1.7V46c0,0.3,0,0.6,0,0.9c0,0.4,0.2,0.7,0.5,1c0.1,0.1,0.3,0.2,0.6,0.3
		c0.3,0.1,0.8,0.2,1.5,0.2h24.5c0,3.7-3,6.7-6.7,6.7H189.9L189.9,55.1z"/>
	<path class="st0" d="M124.4,44.7c-0.1,0.8-0.5,1.6-0.9,2.2c-0.6,0.8-1.4,1.2-2.4,1.4c-1,0.1-1.8,0.2-2.5,0.2h-13.3
		c-0.3,0-0.8,0-1.4-0.1c-0.6,0-1-0.3-1.4-0.6c-0.2-0.2-0.3-0.5-0.4-0.9c-0.1-0.4-0.1-1-0.1-1.7v-9.2l17.1,0c1.4,0,2.4,0.2,3.1,0.7
		c0.7,0.4,1.2,0.8,1.4,1.2c0.4,0.6,0.7,1.3,0.8,2.2c0.1,0.9,0.2,1.7,0.2,2.3C124.6,43,124.6,43.8,124.4,44.7L124.4,44.7z
		 M102.1,19.7c0-0.3,0-0.6,0.1-1c0.1-0.4,0.2-0.7,0.5-1c0.3-0.3,0.6-0.5,0.9-0.5c0.3,0,0.7,0,1,0h13.8c0.7,0,1.4,0,2.2,0.1
		c0.7,0.1,1.4,0.4,2,1c0.7,0.7,1.1,1.5,1.3,2.5c0.1,1,0.2,1.7,0.2,2.3c0,1.5-0.1,2.6-0.3,3.3c-0.2,0.6-0.4,1.1-0.6,1.3
		c-0.6,0.8-1.3,1.3-2.1,1.4c-0.8,0.1-1.6,0.2-2.5,0.2h-9.7c-3.5,0-6.3,2.6-6.6,6v-6h0V19.7L102.1,19.7z M133.3,40.9
		c0-0.7-0.1-1.4-0.2-2.1c-0.1-0.7-0.3-1.4-0.6-2c-0.3-0.7-0.7-1.3-1.2-1.9c-0.6-0.6-1.2-1.1-2.1-1.6c-0.8-0.4-1.8-0.7-2.8-0.8v-0.3
		c0.9-0.1,1.6-0.3,2.3-0.6c0.7-0.3,1.3-0.9,1.9-1.7c1-1.2,1.6-2.4,1.8-3.6c0.2-1.2,0.3-2.4,0.3-3.7c0-0.7,0-1.5-0.1-2.4
		c-0.1-0.8-0.2-1.7-0.4-2.5c-0.2-0.8-0.5-1.7-0.8-2.5c-0.4-0.8-0.9-1.5-1.5-2.2c-0.6-0.6-1.2-1.1-1.9-1.4c-0.7-0.4-1.4-0.6-2.1-0.8
		c-0.7-0.2-1.4-0.3-2.1-0.4c-0.7,0-1.3-0.1-1.9-0.1H99.8c-0.7,0-1.5,0.1-2.4,0.3c-0.9,0.2-1.6,0.7-2.3,1.5c-0.5,0.6-0.8,1.3-1.1,2.1
		c-0.2,0.8-0.4,1.6-0.4,2.5v31.9c0,1.3,0.2,2.3,0.6,3c0.4,0.7,0.7,1.2,0.9,1.5c0.9,1,1.8,1.6,2.9,1.7c1,0.1,2.1,0.1,3.2,0.1h21.4
		c0.7,0,1.4,0,2.1,0c0.7,0,1.4-0.1,2.1-0.3c0.7-0.2,1.4-0.5,2-0.9c0.7-0.4,1.3-0.9,2-1.7c1.3-1.4,2-3,2.2-4.7
		c0.2-1.7,0.3-3.2,0.3-4.7C133.3,42.2,133.3,41.6,133.3,40.9L133.3,40.9z"/>
	<path class="st0" d="M153.2,48.4c-0.7,0-1.3,0-1.8-0.1c-0.5-0.1-0.9-0.2-1.1-0.5c-0.4-0.3-0.6-0.9-0.6-1.7v-6.3h0V24.1h0V20
		c0-0.3,0-0.7,0.1-1.1c0.1-0.4,0.3-0.7,0.6-1.1c0.3-0.3,0.7-0.5,1.1-0.5c0.4-0.1,0.8-0.1,1.2-0.1h17.4c3.7,0,6.7-3,6.7-6.7h-28.6
		c-0.9,0-1.8,0.1-2.8,0.3c-1,0.2-1.9,0.7-2.6,1.5c-0.5,0.6-0.8,1.2-1.1,2.1c-0.3,0.8-0.4,1.7-0.4,2.6v31.6c0,0.9,0.1,1.8,0.3,2.7
		c0.2,1,0.6,1.8,1.4,2.5c0.7,0.7,1.5,1.1,2.4,1.2c0.9,0.1,1.8,0.2,2.7,0.2h22.3c3.7,0,6.7-3,6.7-6.7H153.2L153.2,48.4z"/>
	<path class="st0" d="M156.4,29c-3.7,0-6.7,3-6.7,6.7h19.8c3.7,0,6.7-3,6.7-6.7v0H156.4L156.4,29z"/>
	<path class="st0" d="M0,19.1v28.1c0,4.7,3.8,8.5,8.4,8.5V10.5C3.8,10.5,0,14.4,0,19.1L0,19.1z"/>
	<path class="st0" d="M21,35.1l-3.1-2.8l12.5-11.8l10.6-10h-6.7c-2.4,0-4.7,0.9-6.4,2.6L12.5,27.2c-0.6,0.6-1.1,1.4-1.5,2.3
		c-0.4,0.9-0.6,1.8-0.6,2.6h0c0,0.8,0.2,1.7,0.6,2.8c0.4,1,1.1,2.1,2.2,3.1L30,52.7c1.7,1.6,3.9,2.4,6.2,2.4h7.1L22.2,36.3
		C21.8,35.9,21.4,35.5,21,35.1L21,35.1z"/>
	<path class="st0" d="M69.2,7.1V3.5c0-1.9,1.6-3.5,3.5-3.5h5v3.6c0,1.9-1.6,3.5-3.5,3.5H69.2L69.2,7.1z M54.2,7V3.5
		c0-1.9,1.6-3.5,3.5-3.5h5v3.6c0,1.9-1.6,3.5-3.5,3.5H54.2L54.2,7z"/>
</g>
</svg>
