<?xml version="1.0" encoding="utf-8"?>
<!-- Generator: Adobe Illustrator 23.0.0, SVG Export Plug-In . SVG Version: 6.00 Build 0)  -->
<svg version="1.1" id="Layer_1" xmlns="http://www.w3.org/2000/svg" xmlns:xlink="http://www.w3.org/1999/xlink" x="0px" y="0px"
	 viewBox="0 0 512 512" style="enable-background:new 0 0 512 512;" xml:space="preserve">
<style type="text/css">
	.st0{fill:#FFFFFF;}
</style>
<path class="st0" d="M29.6,13.8c-5-5-12.4-6.5-18.9-3.8S0,19,0,26v60.7h34.7c4.8,0,8.7,3.9,8.7,8.7s-3.9,8.7-8.7,8.7H0v34.7h26
	c4.8,0,8.7,3.9,8.7,8.7c0,4.8-3.9,8.7-8.7,8.7H0v34.7h34.7c4.8,0,8.7,3.9,8.7,8.7s-3.9,8.7-8.7,8.7H0v34.7h26c4.8,0,8.7,3.9,8.7,8.7
	s-3.9,8.7-8.7,8.7H0V295h34.7c4.8,0,8.7,3.9,8.7,8.7s-3.9,8.7-8.7,8.7H0v34.7h26c4.8,0,8.7,3.9,8.7,8.7c0,4.8-3.9,8.7-8.7,8.7H0
	v34.7h34.7c4.8,0,8.7,3.9,8.7,8.7c0,4.8-3.9,8.7-8.7,8.7H0v34.7h43.4c9.6,0,17.3,7.8,17.4,17.4v43.4h34.7v-34.7
	c0-4.8,3.9-8.7,8.7-8.7c4.8,0,8.7,3.9,8.7,8.7v34.7h34.7v-26c0-4.8,3.9-8.7,8.7-8.7s8.7,3.9,8.7,8.7v26h34.7v-34.7
	c0-4.8,3.9-8.7,8.7-8.7c4.8,0,8.7,3.9,8.7,8.7v34.7h34.7v-26c0-4.8,3.9-8.7,8.7-8.7s8.7,3.9,8.7,8.7v26h34.7v-34.7
	c0-4.8,3.9-8.7,8.7-8.7s8.7,3.9,8.7,8.7v34.7h34.7v-26c0-4.8,3.9-8.7,8.7-8.7c4.8,0,8.7,3.9,8.7,8.7v26h34.7v-34.7
	c0-4.8,3.9-8.7,8.7-8.7s8.7,3.9,8.7,8.7v34.7h60.7c7,0,13.3-4.2,16-10.7c2.7-6.5,1.2-13.9-3.8-18.9L29.6,13.8z M86.8,425.2V185.8
	l239.4,239.4H86.8z"/>
<path class="st0" d="M43.4,511.9v-43.4H0v26c0,9.6,7.8,17.3,17.4,17.4H43.4z"/>
<path class="st0" d="M485,263.9c-1.7-1.7-4.4-1.7-6.1,0l-67.5,67.5c-0.8,0.8-1.3,1.9-1.3,3.1c0,1.1,0.5,2.3,1.3,3.1l14.9,14.9
	c7.5,7.6,17.6,11.9,28.3,12.1c8.8,0.1,17.2-3.3,23.4-9.5l24.6-24.6c6.8-6.8,10.2-16.3,9.4-25.9c-0.7-9.8-5-19-12-25.9L485,263.9z"/>
<path class="st0" d="M368.4,294.5c0.8,0.8,1.9,1.3,3.1,1.3c1.2,0,2.3-0.5,3.1-1.3L399,270c1.7-1.7,1.7-4.4,0-6.1l-89-89
	c-2.2-2.2-3.1-5.4-2.3-8.4c0.8-3,3.2-5.4,6.2-6.2c3-0.8,6.2,0.1,8.4,2.3l89,89c1.7,1.7,4.4,1.7,6.1,0l24.6-24.5
	c0.8-0.8,1.3-1.9,1.3-3.1c0-1.2-0.5-2.3-1.3-3.1L283,61.8c-1.7-1.7-4.4-1.7-6.1,0l-24.6,24.5c-0.8,0.8-1.3,1.9-1.3,3.1
	c0,1.2,0.5,2.3,1.3,3.1l45.1,45.1c3.4,3.4,3.4,8.9,0,12.3c-3.4,3.4-8.9,3.4-12.3,0L240,104.7c-0.8-0.8-1.9-1.3-3.1-1.3
	c-1.2,0-2.3,0.5-3.1,1.3l-24.5,24.6c-1.7,1.7-1.7,4.4,0,6.1L368.4,294.5z"/>
<path class="st0" d="M393,319.1c0.8,0.8,1.9,1.3,3.1,1.3c1.2,0,2.3-0.5,3.1-1.3l67.5-67.5c1.7-1.7,1.7-4.4,0-6.1l-6.1-6.2
	c-0.8-0.8-1.9-1.3-3.1-1.3c-1.2,0-2.3,0.5-3.1,1.3l-32.6,32.5l-2.1,2.1c0.2-0.1,0.3-0.3,0.5-0.4l0,0c-0.1,0.1-0.3,0.3-0.4,0.3
	l-32.9,32.9c-1.7,1.7-1.7,4.4,0,6.1L393,319.1z"/>
<path class="st0" d="M261,44.2c-21.2-7.6-87.8-30.7-87.8-30.7L162.4,2.6c-2.2-2.2-5.4-3-8.4-2.2c-3,0.8-5.3,3.1-6.1,6.1
	c-0.8,3,0.1,6.2,2.2,8.4L161,25.7c0,0,23.1,66.6,30.7,87.8c0.5,1.4,1.7,2.4,3.1,2.8c1.5,0.3,3-0.1,4-1.2l63.8-63.8
	c1.1-1.1,1.5-2.6,1.2-4C263.5,45.9,262.4,44.7,261,44.2z"/>
</svg>
