<?xml version="1.0" encoding="utf-8"?>
<!-- Generator: Adobe Illustrator 23.0.0, SVG Export Plug-In . SVG Version: 6.00 Build 0)  -->
<svg version="1.1" id="Isolation_Mode" xmlns="http://www.w3.org/2000/svg" xmlns:xlink="http://www.w3.org/1999/xlink" x="0px"
	 y="0px" viewBox="0 0 512 512" style="enable-background:new 0 0 512 512;" xml:space="preserve">
<style type="text/css">
	.st0{fill:#FFFFFF;}
</style>
<g>
	<polygon class="st0" points="256,165.7 256,221.9 341.3,221.9 341.3,165.7 298.6,123 	"/>
	<path class="st0" d="M292.4,104.9c0.8-0.8,1.7-1.3,2.7-1.8c0.1-0.1,0.2-0.1,0.4-0.1c1-0.4,2-0.6,3.1-0.6h0c0,0,0,0,0.1,0
		c0.7,0,1.4,0.1,2.1,0.3c0.3,0.1,0.6,0.2,0.8,0.3c0.1,0.1,0.3,0.1,0.4,0.1c1.1,0.4,2.1,0.9,2.9,1.8l62.1,62.2l13.5-13.5l-82-81.8
		l-81.6,81.8l13.5,13.5L292.4,104.9z"/>
	<path class="st0" d="M1.1,25.6v460.8c0,14.1,11.5,25.6,25.6,25.6h59.7V0H26.7C12.6,0,1.1,11.5,1.1,25.6z"/>
	<path class="st0" d="M486.4,0H114v512h372.4c14.1,0,25.6-11.5,25.6-25.6V25.6C512,11.5,500.5,0,486.4,0z M198.8,147.6l93.7-93.9
		c1.6-1.6,3.8-2.5,6-2.5h0c2.3,0,4.4,0.9,6,2.5l94.1,93.9c1.6,1.6,2.5,3.8,2.5,6c0,2.3-0.9,4.4-2.5,6L373,185.2
		c-1.6,1.6-3.8,2.5-6,2.5c-2.3,0-4.4-0.9-6-2.5l-2.5-2.5v47.7c0,4.7-3.8,8.5-8.5,8.5H247.5c-4.7,0-8.5-3.8-8.5-8.5v-47.7l-2.5,2.5
		c-1.6,1.6-3.8,2.5-6,2.5c-2.3,0-4.4-0.9-6-2.5l-25.6-25.6C195.4,156.3,195.4,150.9,198.8,147.6z M366.9,315.7
		c0,4.7-3.8,8.5-8.5,8.5h-59.7c-4.7,0-8.5-3.8-8.5-8.5s3.8-8.5,8.5-8.5h59.7C363.1,307.2,366.9,311,366.9,315.7z M179.2,307.2h85.3
		c4.7,0,8.5,3.8,8.5,8.5s-3.8,8.5-8.5,8.5h-85.3c-4.7,0-8.5-3.8-8.5-8.5S174.5,307.2,179.2,307.2z M179.2,358.4h42.7
		c4.7,0,8.5,3.8,8.5,8.5s-3.8,8.5-8.5,8.5h-42.7c-4.7,0-8.5-3.8-8.5-8.5S174.5,358.4,179.2,358.4z M238.9,426.7h-59.7
		c-4.7,0-8.5-3.8-8.5-8.5s3.8-8.5,8.5-8.5h59.7c4.7,0,8.5,3.8,8.5,8.5S243.6,426.7,238.9,426.7z M247.5,366.9c0-4.7,3.8-8.5,8.5-8.5
		h68.3c4.7,0,8.5,3.8,8.5,8.5s-3.8,8.5-8.5,8.5H256C251.3,375.5,247.5,371.7,247.5,366.9z M349.9,426.7h-76.8
		c-4.7,0-8.5-3.8-8.5-8.5s3.8-8.5,8.5-8.5h76.8c4.7,0,8.5,3.8,8.5,8.5S354.6,426.7,349.9,426.7z M418.1,426.7H384
		c-4.7,0-8.5-3.8-8.5-8.5s3.8-8.5,8.5-8.5h34.1c4.7,0,8.5,3.8,8.5,8.5S422.8,426.7,418.1,426.7z M418.1,375.5h-59.7
		c-4.7,0-8.5-3.8-8.5-8.5s3.8-8.5,8.5-8.5h59.7c4.7,0,8.5,3.8,8.5,8.5S422.8,375.5,418.1,375.5z M418.1,324.3h-25.6
		c-4.7,0-8.5-3.8-8.5-8.5s3.8-8.5,8.5-8.5h25.6c4.7,0,8.5,3.8,8.5,8.5S422.8,324.3,418.1,324.3z"/>
</g>
</svg>
