<?xml version="1.0" encoding="utf-8"?>
<!-- Generator: Adobe Illustrator 23.0.0, SVG Export Plug-In . SVG Version: 6.00 Build 0)  -->
<svg version="1.1" id="Capa_1" xmlns="http://www.w3.org/2000/svg" xmlns:xlink="http://www.w3.org/1999/xlink" x="0px" y="0px"
	 viewBox="0 0 58 58" style="enable-background:new 0 0 58 58;" xml:space="preserve">
<style type="text/css">
	.st0{fill:#FFFFFF;}
</style>
<path class="st0" d="M57,0H1C0.4,0,0,0.6,0,1.3v55.5C0,57.4,0.4,58,1,58h56c0.6,0,1-0.6,1-1.3V1.3C58,0.6,57.6,0,57,0z M10,55.5H2
	V44.1h8V55.5z M10,41.6H2V30.3h8V41.6z M10,27.7H2V16.4h8V27.7z M10,13.9H2V2.5h8V13.9z M36.5,30.1l-11,8.8
	c-0.2,0.1-0.3,0.2-0.5,0.2c-0.2,0-0.3-0.1-0.5-0.2c-0.3-0.2-0.5-0.6-0.5-1.1V20.2c0-0.5,0.2-0.9,0.5-1.1c0.3-0.2,0.7-0.2,1,0l11,8.8
	c0.3,0.2,0.5,0.6,0.5,1.1S36.8,29.8,36.5,30.1z M56,55.5h-8V44.1h8V55.5z M56,41.6h-8V30.3h8V41.6z M56,27.7h-8V16.4h8V27.7z
	 M56,13.9h-8V2.5h8V13.9z"/>
</svg>
